<svg width="31" height="38" viewBox="0 0 31 38" fill="none" xmlns="http://www.w3.org/2000/svg">
<g filter="url(#filter0_d_65_1527)">
<path fill-rule="evenodd" clip-rule="evenodd" d="M4 3.5714C4 1.59856 5.51394 0 7.38235 0H23.6176C25.4861 0 27 1.59856 27 3.5714V29.2855C27 29.5269 26.885 29.7512 26.6942 29.8827C26.5021 30.0155 26.2613 30.037 26.0529 29.9398L15.5 25.0655L4.94708 29.9398C4.73872 30.037 4.4979 30.0155 4.30578 29.8827C4.11502 29.7512 4 29.5269 4 29.2855V3.5714ZM7.38235 1.42856C6.26212 1.42856 5.35294 2.38856 5.35294 3.5714V28.1926L15.2294 23.6313C15.4012 23.5513 15.5988 23.5513 15.7706 23.6313L25.6471 28.1926V3.5714C25.6471 2.38856 24.7379 1.42856 23.6176 1.42856H7.38235Z" fill="#DBAD53"/>
</g>
<defs>
<filter id="filter0_d_65_1527" x="0" y="0" width="31" height="38" filterUnits="userSpaceOnUse" color-interpolation-filters="sRGB">
<feFlood flood-opacity="0" result="BackgroundImageFix"/>
<feColorMatrix in="SourceAlpha" type="matrix" values="0 0 0 0 0 0 0 0 0 0 0 0 0 0 0 0 0 0 127 0" result="hardAlpha"/>
<feOffset dy="4"/>
<feGaussianBlur stdDeviation="2"/>
<feComposite in2="hardAlpha" operator="out"/>
<feColorMatrix type="matrix" values="0 0 0 0 0 0 0 0 0 0 0 0 0 0 0 0 0 0 0.25 0"/>
<feBlend mode="normal" in2="BackgroundImageFix" result="effect1_dropShadow_65_1527"/>
<feBlend mode="normal" in="SourceGraphic" in2="effect1_dropShadow_65_1527" result="shape"/>
</filter>
</defs>
</svg>
