<svg width="19" height="17" viewBox="0 0 19 17" fill="none" xmlns="http://www.w3.org/2000/svg">
<path fill-rule="evenodd" clip-rule="evenodd" d="M9.5 0C9.85318 0 10.2064 0.167183 10.4051 0.447903L13.2966 4.3945L18.219 5.74649C18.5501 5.8435 18.8372 6.09532 18.9476 6.41732C19.058 6.74139 18.9916 7.09643 18.7708 7.36683L15.6586 11.1586L15.791 15.9391C15.813 16.2796 15.6365 16.6037 15.3275 16.8039C15.0405 17.0042 14.6654 17.0537 14.3122 16.9402L9.5 15.3384L4.68781 16.9402C4.33463 17.0537 3.95945 17.0042 3.65041 16.8039C3.36346 16.6037 3.18697 16.2796 3.20905 15.9391L3.34135 11.1586L0.22915 7.36683C0.00841308 7.09643 -0.0579805 6.74139 0.052388 6.41732C0.162757 6.09532 0.449887 5.8435 0.780993 5.74649L5.70339 4.3945L8.5949 0.447903C8.79357 0.167183 9.12475 0 9.5 0Z" fill="#FACE49"/>
</svg>
